<svg xmlns="http://www.w3.org/2000/svg" width="277.585" height="65.643" viewBox="0 0 277.585 65.643">
  <g id="Group_50" data-name="Group 50" transform="translate(-266 -344)">
    <g id="Group_49" data-name="Group 49" transform="translate(53.031 -201.887)">
      <path id="Path_122" data-name="Path 122" d="M235.67,557.818c-9.438,0-13.626,14.059-13.626,24.465,0,6.438,2.364,9.451,7.4,9.451,9.124,0,13.631-12.669,13.631-23.186,0-5.9-2.04-10.73-7.409-10.73" transform="translate(15.057 19.796)" fill="#139bd7"/>
      <path id="Path_123" data-name="Path 123" d="M229.807,554.658a19.034,19.034,0,0,0,.431-3.444,2.2,2.2,0,0,0-2.154-2.353c-.973,0-1.867.064-2.72.141a34.449,34.449,0,0,0-2.627,50.5,78.7,78.7,0,0,1,1.38-12.546Z" transform="translate(0 4.934)" fill="#139bd7"/>
      <path id="Path_124" data-name="Path 124" d="M264,580.409a34.56,34.56,0,0,0-34.519-34.522c-1.024,0-2.037.053-3.042.144a7.213,7.213,0,0,1,1.138,4.218,49.319,49.319,0,0,1-1.08,7.943l-2.68,14.916c2.792-3.539,6.76-7.51,14.376-7.51,11.376,0,16.74,8.906,16.74,20.6,0,8.22-1.675,15.841-5,22A34.492,34.492,0,0,0,264,580.409" transform="translate(18.004)" fill="#139bd7"/>
    </g>
    <g id="Group_6" data-name="Group 6" transform="translate(266 346.171)">
      <path id="Path_24" data-name="Path 24" d="M556.7,81.755a2.855,2.855,0,1,0,2.855-2.855,2.849,2.849,0,0,0-2.855,2.855" transform="translate(-284.825 -39.483)" fill="#009bd9"/>
      <path id="Path_25" data-name="Path 25" d="M525.577,30.291a21.1,21.1,0,0,0,.4-2.943c0-1.494-.747-2.548-2.943-2.548a30.06,30.06,0,0,0-4.612.4L517.8,28.71c.483-.044,1.01-.088,1.669-.088a.81.81,0,0,1,.791.879,6.392,6.392,0,0,1-.176,1.274l-.879,4.964c-.615-1.45-1.977-2.723-4.656-2.723-6.413,0-9.752,5.886-9.752,13.222,0,4.788,2.328,8.039,6.765,8.039a8.34,8.34,0,0,0,5.886-3.163c.22,2.2,1.186,2.855,3.734,2.855a15.066,15.066,0,0,0,2.943-.307l.615-3.426h-1.01c-.878,0-1.362-.264-1.362-1.318a7.814,7.814,0,0,1,.176-1.406ZM513.146,49.97c-2.065,0-2.9-1.625-2.9-4.129,0-4.041,1.581-8.478,4.964-8.478,2.065,0,2.855,1.669,2.855,4.129,0,4-1.494,8.478-4.92,8.478" transform="translate(-255.723 -9.148)" opacity="0.731"/>
      <path id="Path_26" data-name="Path 26" d="M482.83,28.653a11.689,11.689,0,0,1,1.318-.088.81.81,0,0,1,.791.879,6.39,6.39,0,0,1-.176,1.274l-2.679,15.374a24.784,24.784,0,0,0-.483,3.734c0,2.987,1.406,4.085,4.3,4.085a16.783,16.783,0,0,0,3.119-.307l.659-3.734h-1.23c-.922,0-1.406-.264-1.406-1.318a7.819,7.819,0,0,1,.176-1.406l2.987-16.956a21.107,21.107,0,0,0,.4-2.943c0-1.494-.747-2.548-2.943-2.548a24.541,24.541,0,0,0-4.217.4Z" transform="translate(-242.714 -9.092)" opacity="0.731"/>
      <path id="Path_27" data-name="Path 27" d="M445.05,43.5a9.93,9.93,0,0,0-6.721,2.372,96.308,96.308,0,0,1-4.085,9.664c0,.351-.044.7-.044,1.054,0,4.788,2.987,8.17,7.951,8.17,7.072,0,10.806-5.8,10.806-13.09,0-4.788-2.987-8.17-7.907-8.17m-2.416,16.956c-1.977,0-2.943-1.845-2.943-4.217,0-3.866,1.45-8.478,4.876-8.478,1.977,0,2.943,1.845,2.943,4.217,0,3.866-1.494,8.478-4.876,8.478" transform="translate(-216.136 -19.633)" opacity="0.731"/>
      <path id="Path_28" data-name="Path 28" d="M324.712,56.4l3.47-.791c4.788-1.1,7.555-2.328,7.555-6.721,0-2.855-2.46-5.491-7.687-5.491-7.072,0-10.85,5.8-10.85,13.09,0,4.788,2.987,8.17,7.951,8.17a16.3,16.3,0,0,0,7.995-1.977l.791-4.7a20.316,20.316,0,0,1-8.434,2.284c-1.889,0-2.592-1.186-2.592-2.021.044-1.01.7-1.581,1.8-1.845m-1.845-2.548.088-.527c.527-3.382,2.416-5.754,5.1-5.754a2.011,2.011,0,0,1,2.2,2.021c0,1.713-1.054,2.328-3.075,2.855l-2.5.615a6.561,6.561,0,0,0-1.8.791" transform="translate(-150.53 -19.577)" opacity="0.731"/>
      <path id="Path_29" data-name="Path 29" d="M287.621,30.291a21.115,21.115,0,0,0,.4-2.943c0-1.494-.747-2.548-2.943-2.548a30.055,30.055,0,0,0-4.612.4l-.615,3.514c.483-.044,1.01-.088,1.669-.088a.81.81,0,0,1,.791.879,6.392,6.392,0,0,1-.176,1.274l-.879,4.964c-.615-1.45-1.977-2.723-4.7-2.723-6.369,0-9.752,5.886-9.752,13.222,0,4.788,2.284,8.039,6.765,8.039a8.429,8.429,0,0,0,5.886-3.163c.176,2.2,1.186,2.855,3.734,2.855a15.066,15.066,0,0,0,2.943-.307l.615-3.426h-.966c-.879,0-1.406-.264-1.406-1.318a7.819,7.819,0,0,1,.176-1.406ZM275.234,49.97c-2.065,0-2.9-1.625-2.9-4.129,0-4.041,1.581-8.478,4.964-8.478,2.065,0,2.855,1.669,2.855,4.129,0,4-1.537,8.478-4.92,8.478" transform="translate(-122.269 -9.148)" opacity="0.731"/>
      <path id="Path_30" data-name="Path 30" d="M228.968,56.4l3.47-.791c4.788-1.1,7.555-2.328,7.555-6.721,0-2.855-2.46-5.491-7.687-5.491-7.072,0-10.806,5.8-10.806,13.09,0,4.788,2.987,8.17,7.951,8.17a16.3,16.3,0,0,0,7.995-1.977l.791-4.7a20.315,20.315,0,0,1-8.434,2.284c-1.889,0-2.592-1.186-2.592-2.021,0-1.01.7-1.581,1.757-1.845m-1.8-2.548.088-.527c.527-3.382,2.416-5.754,5.1-5.754a2.011,2.011,0,0,1,2.2,2.021c0,1.713-1.01,2.328-3.075,2.855l-2.5.615a5.968,5.968,0,0,0-1.8.791" transform="translate(-96.868 -19.577)" opacity="0.731"/>
      <path id="Path_31" data-name="Path 31" d="M187.72,47.829c.483-.044,1.054-.088,1.669-.088a.81.81,0,0,1,.791.879,17.527,17.527,0,0,1-.308,2.021L187.5,64.346h5.359L194.7,53.671c.615-3.426,1.889-5.008,4.437-5.008a5.322,5.322,0,0,1,2.416.527l.922-5.315a11.886,11.886,0,0,0-2.021-.176,5.9,5.9,0,0,0-5.139,3.119v-.747c0-1.494-.966-2.2-2.592-2.2a27.532,27.532,0,0,0-4.437.4Z" transform="translate(-77.803 -19.745)" opacity="0.731"/>
      <path id="Path_32" data-name="Path 32" d="M152.587,33.014a6.34,6.34,0,0,0-5.315,2.767l1.01-5.491a21.11,21.11,0,0,0,.4-2.943c0-1.494-.747-2.548-2.943-2.548a25.126,25.126,0,0,0-4.261.4L140.9,28.71a11.687,11.687,0,0,1,1.318-.088.81.81,0,0,1,.791.879,6.391,6.391,0,0,1-.176,1.274l-2.108,11.948a30.145,30.145,0,0,0-.527,4.744c0,3.866,1.8,6.765,7.38,6.765,7.424,0,11.2-6.15,11.2-13.661-.044-4.261-2.021-7.555-6.194-7.555M148.239,49.97c-1.845,0-2.723-1.1-2.723-3.47,0-3.866,1.537-9.049,5.052-9.049,1.977,0,2.723,1.8,2.723,3.953,0,3.91-1.669,8.566-5.052,8.566" transform="translate(-51.281 -9.148)" opacity="0.731"/>
      <path id="Path_33" data-name="Path 33" d="M370.695,47.79c-.571-3.251-1.406-3.69-4.349-3.69a13.385,13.385,0,0,0-3.031.4l-.615,3.47h.7c1.186,0,1.977.176,2.372,2.021a112.564,112.564,0,0,1,2.372,14.584h4.964a77.884,77.884,0,0,0,5.667-12.387,107.716,107.716,0,0,1,1.493,12.387h4.876c3.47-4.744,7.511-13.178,9.8-20.25H389.32a65.761,65.761,0,0,1-5.491,14.5c-.22-3.163-.747-8.961-1.713-14.5h-4.7c-1.757,5.579-3.734,11.333-5.491,14.5a92.454,92.454,0,0,0-1.23-11.026" transform="translate(-176.043 -19.97)" opacity="0.731"/>
    </g>
  </g>
</svg>
